<svg width="23" height="26" viewBox="0 0 23 26" fill="none" xmlns="http://www.w3.org/2000/svg">
<path d="M15.5001 2.33333V13H20.2815C20.5451 13.0001 20.8029 13.0783 21.0221 13.2248C21.2413 13.3713 21.4121 13.5795 21.513 13.8231C21.6139 14.0667 21.6403 14.3348 21.5889 14.5934C21.5375 14.852 21.4105 15.0895 21.2241 15.276L12.4428 24.0573C12.1928 24.3073 11.8537 24.4477 11.5001 24.4477C11.1466 24.4477 10.8075 24.3073 10.5575 24.0573L1.77612 15.276C1.58971 15.0895 1.46277 14.852 1.41135 14.5934C1.35992 14.3348 1.38633 14.0667 1.48722 13.8231C1.58811 13.5795 1.75897 13.3713 1.97818 13.2248C2.19739 13.0783 2.45512 13.0001 2.71879 13H7.50012V2.33333C7.50012 1.97971 7.6406 1.64057 7.89065 1.39052C8.1407 1.14048 8.47984 1 8.83346 1H14.1668C14.5204 1 14.8596 1.14048 15.1096 1.39052C15.3596 1.64057 15.5001 1.97971 15.5001 2.33333Z" stroke="#CB3C2E" stroke-width="2" stroke-linecap="round" stroke-linejoin="round"/>
</svg>
