<svg width="25" height="28" viewBox="0 0 25 28" fill="none" xmlns="http://www.w3.org/2000/svg">
<path d="M23.6694 21.5178C23.2508 22.476 22.7554 23.3581 22.1813 24.1691C21.3988 25.2747 20.7581 26.04 20.2643 26.4649C19.4989 27.1625 18.6789 27.5197 17.8007 27.54C17.1702 27.54 16.41 27.3622 15.5249 27.0016C14.637 26.6427 13.8211 26.4649 13.075 26.4649C12.2925 26.4649 11.4532 26.6427 10.5556 27.0016C9.65657 27.3622 8.93233 27.5502 8.37861 27.5688C7.53648 27.6044 6.69709 27.237 5.85924 26.4649C5.32448 26.0027 4.6556 25.2103 3.85431 24.0878C2.99459 22.8892 2.28778 21.4991 1.73405 19.9144C1.14103 18.2027 0.84375 16.5452 0.84375 14.9405C0.84375 13.1024 1.24457 11.517 2.04739 10.1884C2.67834 9.12127 3.51773 8.27948 4.56829 7.66151C5.61886 7.04354 6.75399 6.72863 7.97643 6.70848C8.6453 6.70848 9.52245 6.91351 10.6125 7.31646C11.6994 7.72076 12.3974 7.92579 12.7034 7.92579C12.9321 7.92579 13.7074 7.68606 15.0218 7.2081C16.2647 6.76486 17.3138 6.58133 18.1731 6.65362C20.5018 6.83986 22.2513 7.74955 23.4148 9.38844C21.3322 10.6389 20.3019 12.3904 20.3224 14.6373C20.3412 16.3874 20.9819 17.8438 22.2411 19.0002C22.8117 19.5369 23.449 19.9517 24.158 20.2463C24.0043 20.6882 23.842 21.1114 23.6694 21.5178V21.5178ZM18.3286 0.691306C18.3286 2.06305 17.8229 3.34384 16.8149 4.52933C15.5984 5.93864 14.127 6.75301 12.5315 6.6245C12.5111 6.45993 12.4994 6.28673 12.4994 6.10473C12.4994 4.78786 13.0779 3.37855 14.1052 2.22624C14.6181 1.64281 15.2704 1.1577 16.0614 0.77071C16.8508 0.389498 17.5974 0.17868 18.2996 0.142578C18.3201 0.325959 18.3286 0.509351 18.3286 0.691288V0.691306Z" fill="#212529"/>
</svg>
