<svg width="21" height="22" viewBox="0 0 21 22" fill="none" xmlns="http://www.w3.org/2000/svg">
<path fill-rule="evenodd" clip-rule="evenodd" d="M10.5 1.96512C8.1038 1.96512 5.80574 2.917 4.11137 4.61137C2.417 6.30574 1.46512 8.6038 1.46512 11C1.46512 13.3962 2.417 15.6943 4.11137 17.3886C5.80574 19.083 8.1038 20.0349 10.5 20.0349C12.8962 20.0349 15.1943 19.083 16.8886 17.3886C18.583 15.6943 19.5349 13.3962 19.5349 11C19.5349 8.6038 18.583 6.30574 16.8886 4.61137C15.1943 2.917 12.8962 1.96512 10.5 1.96512ZM0 11C0 5.20107 4.70107 0.5 10.5 0.5C16.2989 0.5 21 5.20107 21 11C21 16.7989 16.2989 21.5 10.5 21.5C4.70107 21.5 0 16.7989 0 11ZM10.5 6.36046C10.6943 6.36046 10.8806 6.43764 11.018 6.57503C11.1554 6.71241 11.2326 6.89874 11.2326 7.09302V10.6972L13.4595 12.9242C13.5315 12.9913 13.5892 13.0721 13.6293 13.162C13.6693 13.2518 13.6908 13.3489 13.6926 13.4472C13.6943 13.5456 13.6762 13.6433 13.6394 13.7345C13.6025 13.8257 13.5477 13.9086 13.4781 13.9781C13.4086 14.0477 13.3257 14.1025 13.2345 14.1394C13.1433 14.1762 13.0456 14.1943 12.9472 14.1926C12.8489 14.1908 12.7518 14.1693 12.662 14.1293C12.5721 14.0892 12.4913 14.0315 12.4242 13.9595L9.98233 11.5177C9.8449 11.3804 9.76761 11.1942 9.76744 11V7.09302C9.76744 6.89874 9.84462 6.71241 9.982 6.57503C10.1194 6.43764 10.3057 6.36046 10.5 6.36046Z" fill="#343A40"/>
</svg>
