<svg width="29" height="28" viewBox="0 0 29 28" fill="none" xmlns="http://www.w3.org/2000/svg">
<g clip-path="url(#clip0_587_1086)">
<path fill-rule="evenodd" clip-rule="evenodd" d="M27.6657 14.312C27.6657 13.3396 27.5784 12.4045 27.4164 11.5068H14.5V16.8118H21.8808C21.5629 18.5261 20.5966 19.9785 19.1442 20.951V24.392H23.5764C26.1696 22.0045 27.6657 18.4887 27.6657 14.312Z" fill="#4285F4"/>
<path fill-rule="evenodd" clip-rule="evenodd" d="M14.5007 27.715C18.2036 27.715 21.308 26.487 23.5771 24.3924L19.1449 20.9514C17.9168 21.7742 16.3459 22.2605 14.5007 22.2605C10.9288 22.2605 7.90538 19.848 6.82693 16.6064H2.24512V20.1597C4.50174 24.6418 9.13966 27.715 14.5007 27.715Z" fill="#34A853"/>
<path fill-rule="evenodd" clip-rule="evenodd" d="M6.82665 16.6065C6.55237 15.7836 6.39652 14.9047 6.39652 14.0008C6.39652 13.0969 6.55237 12.2179 6.82665 11.395V7.8418H2.24483C1.316 9.69323 0.786133 11.7878 0.786133 14.0008C0.786133 16.2137 1.316 18.3083 2.24483 20.1597L6.82665 16.6065Z" fill="#FBBC05"/>
<path fill-rule="evenodd" clip-rule="evenodd" d="M14.5007 5.74068C16.5142 5.74068 18.322 6.43263 19.7433 7.79159L23.6768 3.85808C21.3017 1.64509 18.1973 0.286133 14.5007 0.286133C9.13966 0.286133 4.50174 3.35938 2.24512 7.84146L6.82694 11.3947C7.90538 8.15315 10.9288 5.74068 14.5007 5.74068Z" fill="#EA4335"/>
</g>
<defs>
<clipPath id="clip0_587_1086">
<rect x="0.786133" y="0.286133" width="27.4286" height="27.4286" rx="6" fill="white"/>
</clipPath>
</defs>
</svg>
