<svg width="32" height="32" viewBox="0 0 32 32" fill="none" xmlns="http://www.w3.org/2000/svg">
<path d="M16 17.333C18.2091 17.333 20 15.5421 20 13.333C20 11.1239 18.2091 9.33301 16 9.33301C13.7909 9.33301 12 11.1239 12 13.333C12 15.5421 13.7909 17.333 16 17.333Z" stroke="#F8F9FA" stroke-width="2" stroke-linecap="round" stroke-linejoin="round"/>
<path d="M16.0007 2.6665C13.1717 2.6665 10.4586 3.79031 8.45818 5.7907C6.45779 7.79109 5.33398 10.5042 5.33398 13.3332C5.33398 15.8558 5.86998 17.5065 7.33398 19.3332L16.0007 29.3332L24.6673 19.3332C26.1313 17.5065 26.6673 15.8558 26.6673 13.3332C26.6673 10.5042 25.5435 7.79109 23.5431 5.7907C21.5427 3.79031 18.8296 2.6665 16.0007 2.6665V2.6665Z" stroke="#F8F9FA" stroke-width="2" stroke-linecap="round" stroke-linejoin="round"/>
</svg>
