<svg width="1441" height="34" viewBox="0 0 1441 34" fill="none" xmlns="http://www.w3.org/2000/svg">
<g clip-path="url(#clip0_314_87)">
<path d="M1202.17 6L1204.76 1.5H1199.57L1202.17 6Z" fill="#CB3C2E"/>
<path d="M1208.17 6L1210.76 1.5H1205.57L1208.17 6Z" fill="#CB3C2E"/>
<path d="M1214.17 6L1216.76 1.5H1211.57L1214.17 6Z" fill="#CB3C2E"/>
<path d="M1220.17 6L1222.76 1.5H1217.57L1220.17 6Z" fill="#CB3C2E"/>
<path d="M1226.17 6L1228.76 1.5H1223.57L1226.17 6Z" fill="#CB3C2E"/>
<path d="M1232.17 6L1234.76 1.5H1229.57L1232.17 6Z" fill="#CB3C2E"/>
<path d="M1238.17 6L1240.76 1.5H1235.57L1238.17 6Z" fill="#CB3C2E"/>
<path d="M1244.17 6L1246.76 1.5H1241.57L1244.17 6Z" fill="#CB3C2E"/>
<path d="M1250.17 6L1252.76 1.5H1247.57L1250.17 6Z" fill="#CB3C2E"/>
<path d="M1256.17 6L1258.76 1.5H1253.57L1256.17 6Z" fill="#CB3C2E"/>
<path d="M1262.17 6L1264.76 1.5H1259.57L1262.17 6Z" fill="#CB3C2E"/>
<path d="M1268.17 6L1270.76 1.5H1265.57L1268.17 6Z" fill="#CB3C2E"/>
<path d="M1274.17 6L1276.76 1.5H1271.57L1274.17 6Z" fill="#CB3C2E"/>
<path d="M1280.17 6L1282.76 1.5H1277.57L1280.17 6Z" fill="#CB3C2E"/>
<path d="M1286.17 6L1288.76 1.5H1283.57L1286.17 6Z" fill="#CB3C2E"/>
<path d="M1292.17 6L1294.76 1.5H1289.57L1292.17 6Z" fill="#CB3C2E"/>
<path d="M1298.17 6L1300.76 1.5H1295.57L1298.17 6Z" fill="#CB3C2E"/>
<path d="M1304.17 6L1306.76 1.5H1301.57L1304.17 6Z" fill="#CB3C2E"/>
<path d="M1310.17 6L1312.76 1.5H1307.57L1310.17 6Z" fill="#CB3C2E"/>
<path d="M1316.17 6L1318.76 1.5H1313.57L1316.17 6Z" fill="#CB3C2E"/>
<path d="M1322.17 6L1324.76 1.5H1319.57L1322.17 6Z" fill="#CB3C2E"/>
<path d="M1328.17 6L1330.76 1.5H1325.57L1328.17 6Z" fill="#CB3C2E"/>
<path d="M1334.17 6L1336.76 1.5H1331.57L1334.17 6Z" fill="#CB3C2E"/>
<path d="M1340.17 6L1342.76 1.5H1337.57L1340.17 6Z" fill="#CB3C2E"/>
<path d="M1346.17 6L1348.76 1.5H1343.57L1346.17 6Z" fill="#CB3C2E"/>
<path d="M1352.17 6L1354.76 1.5H1349.57L1352.17 6Z" fill="#CB3C2E"/>
<path d="M1358.17 6L1360.76 1.5H1355.57L1358.17 6Z" fill="#CB3C2E"/>
<path d="M1364.17 6L1366.76 1.5H1361.57L1364.17 6Z" fill="#CB3C2E"/>
<path d="M1370.17 6L1372.76 1.5H1367.57L1370.17 6Z" fill="#CB3C2E"/>
<path d="M1376.17 6L1378.76 1.5H1373.57L1376.17 6Z" fill="#CB3C2E"/>
<path d="M1382.17 6L1384.76 1.5H1379.57L1382.17 6Z" fill="#CB3C2E"/>
<path d="M1388.17 6L1390.76 1.5H1385.57L1388.17 6Z" fill="#CB3C2E"/>
<path d="M1394.17 6L1396.76 1.5H1391.57L1394.17 6Z" fill="#CB3C2E"/>
<path d="M1400.17 6L1402.76 1.5H1397.57L1400.17 6Z" fill="#CB3C2E"/>
<path d="M1406.17 6L1408.76 1.5H1403.57L1406.17 6Z" fill="#CB3C2E"/>
<path d="M1412.17 6L1414.76 1.5H1409.57L1412.17 6Z" fill="#CB3C2E"/>
<path d="M1418.17 6L1420.76 1.5H1415.57L1418.17 6Z" fill="#CB3C2E"/>
<path d="M1424.17 6L1426.76 1.5H1421.57L1424.17 6Z" fill="#CB3C2E"/>
<path d="M1430.17 6L1432.76 1.5H1427.57L1430.17 6Z" fill="#CB3C2E"/>
<path d="M1436.17 6L1438.76 1.5H1433.57L1436.17 6Z" fill="#CB3C2E"/>
<rect x="1199.17" y="10" width="240" height="5" fill="#CB3C2E"/>
<path d="M1202.17 25L1204.76 20.5H1199.57L1202.17 25Z" fill="#CB3C2E"/>
<path d="M1208.17 25L1210.76 20.5H1205.57L1208.17 25Z" fill="#CB3C2E"/>
<path d="M1214.17 25L1216.76 20.5H1211.57L1214.17 25Z" fill="#CB3C2E"/>
<path d="M1220.17 25L1222.76 20.5H1217.57L1220.17 25Z" fill="#CB3C2E"/>
<path d="M1226.17 25L1228.76 20.5H1223.57L1226.17 25Z" fill="#CB3C2E"/>
<path d="M1232.17 25L1234.76 20.5H1229.57L1232.17 25Z" fill="#CB3C2E"/>
<path d="M1238.17 25L1240.76 20.5H1235.57L1238.17 25Z" fill="#CB3C2E"/>
<path d="M1244.17 25L1246.76 20.5H1241.57L1244.17 25Z" fill="#CB3C2E"/>
<path d="M1250.17 25L1252.76 20.5H1247.57L1250.17 25Z" fill="#CB3C2E"/>
<path d="M1256.17 25L1258.76 20.5H1253.57L1256.17 25Z" fill="#CB3C2E"/>
<path d="M1262.17 25L1264.76 20.5H1259.57L1262.17 25Z" fill="#CB3C2E"/>
<path d="M1268.17 25L1270.76 20.5H1265.57L1268.17 25Z" fill="#CB3C2E"/>
<path d="M1274.17 25L1276.76 20.5H1271.57L1274.17 25Z" fill="#CB3C2E"/>
<path d="M1280.17 25L1282.76 20.5H1277.57L1280.17 25Z" fill="#CB3C2E"/>
<path d="M1286.17 25L1288.76 20.5H1283.57L1286.17 25Z" fill="#CB3C2E"/>
<path d="M1292.17 25L1294.76 20.5H1289.57L1292.17 25Z" fill="#CB3C2E"/>
<path d="M1298.17 25L1300.76 20.5H1295.57L1298.17 25Z" fill="#CB3C2E"/>
<path d="M1304.17 25L1306.76 20.5H1301.57L1304.17 25Z" fill="#CB3C2E"/>
<path d="M1310.17 25L1312.76 20.5H1307.57L1310.17 25Z" fill="#CB3C2E"/>
<path d="M1316.17 25L1318.76 20.5H1313.57L1316.17 25Z" fill="#CB3C2E"/>
<path d="M1322.17 25L1324.76 20.5H1319.57L1322.17 25Z" fill="#CB3C2E"/>
<path d="M1328.17 25L1330.76 20.5H1325.57L1328.17 25Z" fill="#CB3C2E"/>
<path d="M1334.17 25L1336.76 20.5H1331.57L1334.17 25Z" fill="#CB3C2E"/>
<path d="M1340.17 25L1342.76 20.5H1337.57L1340.17 25Z" fill="#CB3C2E"/>
<path d="M1346.17 25L1348.76 20.5H1343.57L1346.17 25Z" fill="#CB3C2E"/>
<path d="M1352.17 25L1354.76 20.5H1349.57L1352.17 25Z" fill="#CB3C2E"/>
<path d="M1358.17 25L1360.76 20.5H1355.57L1358.17 25Z" fill="#CB3C2E"/>
<path d="M1364.17 25L1366.76 20.5H1361.57L1364.17 25Z" fill="#CB3C2E"/>
<path d="M1370.17 25L1372.76 20.5H1367.57L1370.17 25Z" fill="#CB3C2E"/>
<path d="M1376.17 25L1378.76 20.5H1373.57L1376.17 25Z" fill="#CB3C2E"/>
<path d="M1382.17 25L1384.76 20.5H1379.57L1382.17 25Z" fill="#CB3C2E"/>
<path d="M1388.17 25L1390.76 20.5H1385.57L1388.17 25Z" fill="#CB3C2E"/>
<path d="M1394.17 25L1396.76 20.5H1391.57L1394.17 25Z" fill="#CB3C2E"/>
<path d="M1400.17 25L1402.76 20.5H1397.57L1400.17 25Z" fill="#CB3C2E"/>
<path d="M1406.17 25L1408.76 20.5H1403.57L1406.17 25Z" fill="#CB3C2E"/>
<path d="M1412.17 25L1414.76 20.5H1409.57L1412.17 25Z" fill="#CB3C2E"/>
<path d="M1418.17 25L1420.76 20.5H1415.57L1418.17 25Z" fill="#CB3C2E"/>
<path d="M1424.17 25L1426.76 20.5H1421.57L1424.17 25Z" fill="#CB3C2E"/>
<path d="M1430.17 25L1432.76 20.5H1427.57L1430.17 25Z" fill="#CB3C2E"/>
<path d="M1436.17 25L1438.76 20.5H1433.57L1436.17 25Z" fill="#CB3C2E"/>
<rect x="1199.17" y="29" width="240" height="5" fill="#CB3C2E"/>
<path d="M962.336 6L964.934 1.5H959.738L962.336 6Z" fill="#CB3C2E"/>
<path d="M968.336 6L970.934 1.5H965.738L968.336 6Z" fill="#CB3C2E"/>
<path d="M974.336 6L976.934 1.5H971.738L974.336 6Z" fill="#CB3C2E"/>
<path d="M980.336 6L982.934 1.5H977.738L980.336 6Z" fill="#CB3C2E"/>
<path d="M986.336 6L988.934 1.5H983.738L986.336 6Z" fill="#CB3C2E"/>
<path d="M992.336 6L994.934 1.5H989.738L992.336 6Z" fill="#CB3C2E"/>
<path d="M998.336 6L1000.93 1.5H995.738L998.336 6Z" fill="#CB3C2E"/>
<path d="M1004.34 6L1006.93 1.5H1001.74L1004.34 6Z" fill="#CB3C2E"/>
<path d="M1010.34 6L1012.93 1.5H1007.74L1010.34 6Z" fill="#CB3C2E"/>
<path d="M1016.34 6L1018.93 1.5H1013.74L1016.34 6Z" fill="#CB3C2E"/>
<path d="M1022.34 6L1024.93 1.5H1019.74L1022.34 6Z" fill="#CB3C2E"/>
<path d="M1028.34 6L1030.93 1.5H1025.74L1028.34 6Z" fill="#CB3C2E"/>
<path d="M1034.34 6L1036.93 1.5H1031.74L1034.34 6Z" fill="#CB3C2E"/>
<path d="M1040.34 6L1042.93 1.5H1037.74L1040.34 6Z" fill="#CB3C2E"/>
<path d="M1046.34 6L1048.93 1.5H1043.74L1046.34 6Z" fill="#CB3C2E"/>
<path d="M1052.34 6L1054.93 1.5H1049.74L1052.34 6Z" fill="#CB3C2E"/>
<path d="M1058.34 6L1060.93 1.5H1055.74L1058.34 6Z" fill="#CB3C2E"/>
<path d="M1064.34 6L1066.93 1.5H1061.74L1064.34 6Z" fill="#CB3C2E"/>
<path d="M1070.34 6L1072.93 1.5H1067.74L1070.34 6Z" fill="#CB3C2E"/>
<path d="M1076.34 6L1078.93 1.5H1073.74L1076.34 6Z" fill="#CB3C2E"/>
<path d="M1082.34 6L1084.93 1.5H1079.74L1082.34 6Z" fill="#CB3C2E"/>
<path d="M1088.34 6L1090.93 1.5H1085.74L1088.34 6Z" fill="#CB3C2E"/>
<path d="M1094.34 6L1096.93 1.5H1091.74L1094.34 6Z" fill="#CB3C2E"/>
<path d="M1100.34 6L1102.93 1.5H1097.74L1100.34 6Z" fill="#CB3C2E"/>
<path d="M1106.34 6L1108.93 1.5H1103.74L1106.34 6Z" fill="#CB3C2E"/>
<path d="M1112.34 6L1114.93 1.5H1109.74L1112.34 6Z" fill="#CB3C2E"/>
<path d="M1118.34 6L1120.93 1.5H1115.74L1118.34 6Z" fill="#CB3C2E"/>
<path d="M1124.34 6L1126.93 1.5H1121.74L1124.34 6Z" fill="#CB3C2E"/>
<path d="M1130.34 6L1132.93 1.5H1127.74L1130.34 6Z" fill="#CB3C2E"/>
<path d="M1136.34 6L1138.93 1.5H1133.74L1136.34 6Z" fill="#CB3C2E"/>
<path d="M1142.34 6L1144.93 1.5H1139.74L1142.34 6Z" fill="#CB3C2E"/>
<path d="M1148.34 6L1150.93 1.5H1145.74L1148.34 6Z" fill="#CB3C2E"/>
<path d="M1154.34 6L1156.93 1.5H1151.74L1154.34 6Z" fill="#CB3C2E"/>
<path d="M1160.34 6L1162.93 1.5H1157.74L1160.34 6Z" fill="#CB3C2E"/>
<path d="M1166.34 6L1168.93 1.5H1163.74L1166.34 6Z" fill="#CB3C2E"/>
<path d="M1172.34 6L1174.93 1.5H1169.74L1172.34 6Z" fill="#CB3C2E"/>
<path d="M1178.34 6L1180.93 1.5H1175.74L1178.34 6Z" fill="#CB3C2E"/>
<path d="M1184.34 6L1186.93 1.5H1181.74L1184.34 6Z" fill="#CB3C2E"/>
<path d="M1190.34 6L1192.93 1.5H1187.74L1190.34 6Z" fill="#CB3C2E"/>
<path d="M1196.34 6L1198.93 1.5H1193.74L1196.34 6Z" fill="#CB3C2E"/>
<rect x="959.336" y="10" width="240" height="5" fill="#CB3C2E"/>
<path d="M962.336 25L964.934 20.5H959.738L962.336 25Z" fill="#CB3C2E"/>
<path d="M968.336 25L970.934 20.5H965.738L968.336 25Z" fill="#CB3C2E"/>
<path d="M974.336 25L976.934 20.5H971.738L974.336 25Z" fill="#CB3C2E"/>
<path d="M980.336 25L982.934 20.5H977.738L980.336 25Z" fill="#CB3C2E"/>
<path d="M986.336 25L988.934 20.5H983.738L986.336 25Z" fill="#CB3C2E"/>
<path d="M992.336 25L994.934 20.5H989.738L992.336 25Z" fill="#CB3C2E"/>
<path d="M998.336 25L1000.93 20.5H995.738L998.336 25Z" fill="#CB3C2E"/>
<path d="M1004.34 25L1006.93 20.5H1001.74L1004.34 25Z" fill="#CB3C2E"/>
<path d="M1010.34 25L1012.93 20.5H1007.74L1010.34 25Z" fill="#CB3C2E"/>
<path d="M1016.34 25L1018.93 20.5H1013.74L1016.34 25Z" fill="#CB3C2E"/>
<path d="M1022.34 25L1024.93 20.5H1019.74L1022.34 25Z" fill="#CB3C2E"/>
<path d="M1028.34 25L1030.93 20.5H1025.74L1028.34 25Z" fill="#CB3C2E"/>
<path d="M1034.34 25L1036.93 20.5H1031.74L1034.34 25Z" fill="#CB3C2E"/>
<path d="M1040.34 25L1042.93 20.5H1037.74L1040.34 25Z" fill="#CB3C2E"/>
<path d="M1046.34 25L1048.93 20.5H1043.74L1046.34 25Z" fill="#CB3C2E"/>
<path d="M1052.34 25L1054.93 20.5H1049.74L1052.34 25Z" fill="#CB3C2E"/>
<path d="M1058.34 25L1060.93 20.5H1055.74L1058.34 25Z" fill="#CB3C2E"/>
<path d="M1064.34 25L1066.93 20.5H1061.74L1064.34 25Z" fill="#CB3C2E"/>
<path d="M1070.34 25L1072.93 20.5H1067.74L1070.34 25Z" fill="#CB3C2E"/>
<path d="M1076.34 25L1078.93 20.5H1073.74L1076.34 25Z" fill="#CB3C2E"/>
<path d="M1082.34 25L1084.93 20.5H1079.74L1082.34 25Z" fill="#CB3C2E"/>
<path d="M1088.34 25L1090.93 20.5H1085.74L1088.34 25Z" fill="#CB3C2E"/>
<path d="M1094.34 25L1096.93 20.5H1091.74L1094.34 25Z" fill="#CB3C2E"/>
<path d="M1100.34 25L1102.93 20.5H1097.74L1100.34 25Z" fill="#CB3C2E"/>
<path d="M1106.34 25L1108.93 20.5H1103.74L1106.34 25Z" fill="#CB3C2E"/>
<path d="M1112.34 25L1114.93 20.5H1109.74L1112.34 25Z" fill="#CB3C2E"/>
<path d="M1118.34 25L1120.93 20.5H1115.74L1118.34 25Z" fill="#CB3C2E"/>
<path d="M1124.34 25L1126.93 20.5H1121.74L1124.34 25Z" fill="#CB3C2E"/>
<path d="M1130.34 25L1132.93 20.5H1127.74L1130.34 25Z" fill="#CB3C2E"/>
<path d="M1136.34 25L1138.93 20.5H1133.74L1136.34 25Z" fill="#CB3C2E"/>
<path d="M1142.34 25L1144.93 20.5H1139.74L1142.34 25Z" fill="#CB3C2E"/>
<path d="M1148.34 25L1150.93 20.5H1145.74L1148.34 25Z" fill="#CB3C2E"/>
<path d="M1154.34 25L1156.93 20.5H1151.74L1154.34 25Z" fill="#CB3C2E"/>
<path d="M1160.34 25L1162.93 20.5H1157.74L1160.34 25Z" fill="#CB3C2E"/>
<path d="M1166.34 25L1168.93 20.5H1163.74L1166.34 25Z" fill="#CB3C2E"/>
<path d="M1172.34 25L1174.93 20.5H1169.74L1172.34 25Z" fill="#CB3C2E"/>
<path d="M1178.34 25L1180.93 20.5H1175.74L1178.34 25Z" fill="#CB3C2E"/>
<path d="M1184.34 25L1186.93 20.5H1181.74L1184.34 25Z" fill="#CB3C2E"/>
<path d="M1190.34 25L1192.93 20.5H1187.74L1190.34 25Z" fill="#CB3C2E"/>
<path d="M1196.34 25L1198.93 20.5H1193.74L1196.34 25Z" fill="#CB3C2E"/>
<rect x="959.336" y="29" width="240" height="5" fill="#CB3C2E"/>
<path d="M722.5 6L725.098 1.5H719.902L722.5 6Z" fill="#CB3C2E"/>
<path d="M728.5 6L731.098 1.5H725.902L728.5 6Z" fill="#CB3C2E"/>
<path d="M734.5 6L737.098 1.5H731.902L734.5 6Z" fill="#CB3C2E"/>
<path d="M740.5 6L743.098 1.5H737.902L740.5 6Z" fill="#CB3C2E"/>
<path d="M746.5 6L749.098 1.5H743.902L746.5 6Z" fill="#CB3C2E"/>
<path d="M752.5 6L755.098 1.5H749.902L752.5 6Z" fill="#CB3C2E"/>
<path d="M758.5 6L761.098 1.5H755.902L758.5 6Z" fill="#CB3C2E"/>
<path d="M764.5 6L767.098 1.5H761.902L764.5 6Z" fill="#CB3C2E"/>
<path d="M770.5 6L773.098 1.5H767.902L770.5 6Z" fill="#CB3C2E"/>
<path d="M776.5 6L779.098 1.5H773.902L776.5 6Z" fill="#CB3C2E"/>
<path d="M782.5 6L785.098 1.5H779.902L782.5 6Z" fill="#CB3C2E"/>
<path d="M788.5 6L791.098 1.5H785.902L788.5 6Z" fill="#CB3C2E"/>
<path d="M794.5 6L797.098 1.5H791.902L794.5 6Z" fill="#CB3C2E"/>
<path d="M800.5 6L803.098 1.5H797.902L800.5 6Z" fill="#CB3C2E"/>
<path d="M806.5 6L809.098 1.5H803.902L806.5 6Z" fill="#CB3C2E"/>
<path d="M812.5 6L815.098 1.5H809.902L812.5 6Z" fill="#CB3C2E"/>
<path d="M818.5 6L821.098 1.5H815.902L818.5 6Z" fill="#CB3C2E"/>
<path d="M824.5 6L827.098 1.5H821.902L824.5 6Z" fill="#CB3C2E"/>
<path d="M830.5 6L833.098 1.5H827.902L830.5 6Z" fill="#CB3C2E"/>
<path d="M836.5 6L839.098 1.5H833.902L836.5 6Z" fill="#CB3C2E"/>
<path d="M842.5 6L845.098 1.5H839.902L842.5 6Z" fill="#CB3C2E"/>
<path d="M848.5 6L851.098 1.5H845.902L848.5 6Z" fill="#CB3C2E"/>
<path d="M854.5 6L857.098 1.5H851.902L854.5 6Z" fill="#CB3C2E"/>
<path d="M860.5 6L863.098 1.5H857.902L860.5 6Z" fill="#CB3C2E"/>
<path d="M866.5 6L869.098 1.5H863.902L866.5 6Z" fill="#CB3C2E"/>
<path d="M872.5 6L875.098 1.5H869.902L872.5 6Z" fill="#CB3C2E"/>
<path d="M878.5 6L881.098 1.5H875.902L878.5 6Z" fill="#CB3C2E"/>
<path d="M884.5 6L887.098 1.5H881.902L884.5 6Z" fill="#CB3C2E"/>
<path d="M890.5 6L893.098 1.5H887.902L890.5 6Z" fill="#CB3C2E"/>
<path d="M896.5 6L899.098 1.5H893.902L896.5 6Z" fill="#CB3C2E"/>
<path d="M902.5 6L905.098 1.5H899.902L902.5 6Z" fill="#CB3C2E"/>
<path d="M908.5 6L911.098 1.5H905.902L908.5 6Z" fill="#CB3C2E"/>
<path d="M914.5 6L917.098 1.5H911.902L914.5 6Z" fill="#CB3C2E"/>
<path d="M920.5 6L923.098 1.5H917.902L920.5 6Z" fill="#CB3C2E"/>
<path d="M926.5 6L929.098 1.5H923.902L926.5 6Z" fill="#CB3C2E"/>
<path d="M932.5 6L935.098 1.5H929.902L932.5 6Z" fill="#CB3C2E"/>
<path d="M938.5 6L941.098 1.5H935.902L938.5 6Z" fill="#CB3C2E"/>
<path d="M944.5 6L947.098 1.5H941.902L944.5 6Z" fill="#CB3C2E"/>
<path d="M950.5 6L953.098 1.5H947.902L950.5 6Z" fill="#CB3C2E"/>
<path d="M956.5 6L959.098 1.5H953.902L956.5 6Z" fill="#CB3C2E"/>
<rect x="719.5" y="10" width="240" height="5" fill="#CB3C2E"/>
<path d="M722.5 25L725.098 20.5H719.902L722.5 25Z" fill="#CB3C2E"/>
<path d="M728.5 25L731.098 20.5H725.902L728.5 25Z" fill="#CB3C2E"/>
<path d="M734.5 25L737.098 20.5H731.902L734.5 25Z" fill="#CB3C2E"/>
<path d="M740.5 25L743.098 20.5H737.902L740.5 25Z" fill="#CB3C2E"/>
<path d="M746.5 25L749.098 20.5H743.902L746.5 25Z" fill="#CB3C2E"/>
<path d="M752.5 25L755.098 20.5H749.902L752.5 25Z" fill="#CB3C2E"/>
<path d="M758.5 25L761.098 20.5H755.902L758.5 25Z" fill="#CB3C2E"/>
<path d="M764.5 25L767.098 20.5H761.902L764.5 25Z" fill="#CB3C2E"/>
<path d="M770.5 25L773.098 20.5H767.902L770.5 25Z" fill="#CB3C2E"/>
<path d="M776.5 25L779.098 20.5H773.902L776.5 25Z" fill="#CB3C2E"/>
<path d="M782.5 25L785.098 20.5H779.902L782.5 25Z" fill="#CB3C2E"/>
<path d="M788.5 25L791.098 20.5H785.902L788.5 25Z" fill="#CB3C2E"/>
<path d="M794.5 25L797.098 20.5H791.902L794.5 25Z" fill="#CB3C2E"/>
<path d="M800.5 25L803.098 20.5H797.902L800.5 25Z" fill="#CB3C2E"/>
<path d="M806.5 25L809.098 20.5H803.902L806.5 25Z" fill="#CB3C2E"/>
<path d="M812.5 25L815.098 20.5H809.902L812.5 25Z" fill="#CB3C2E"/>
<path d="M818.5 25L821.098 20.5H815.902L818.5 25Z" fill="#CB3C2E"/>
<path d="M824.5 25L827.098 20.5H821.902L824.5 25Z" fill="#CB3C2E"/>
<path d="M830.5 25L833.098 20.5H827.902L830.5 25Z" fill="#CB3C2E"/>
<path d="M836.5 25L839.098 20.5H833.902L836.5 25Z" fill="#CB3C2E"/>
<path d="M842.5 25L845.098 20.5H839.902L842.5 25Z" fill="#CB3C2E"/>
<path d="M848.5 25L851.098 20.5H845.902L848.5 25Z" fill="#CB3C2E"/>
<path d="M854.5 25L857.098 20.5H851.902L854.5 25Z" fill="#CB3C2E"/>
<path d="M860.5 25L863.098 20.5H857.902L860.5 25Z" fill="#CB3C2E"/>
<path d="M866.5 25L869.098 20.5H863.902L866.5 25Z" fill="#CB3C2E"/>
<path d="M872.5 25L875.098 20.5H869.902L872.5 25Z" fill="#CB3C2E"/>
<path d="M878.5 25L881.098 20.5H875.902L878.5 25Z" fill="#CB3C2E"/>
<path d="M884.5 25L887.098 20.5H881.902L884.5 25Z" fill="#CB3C2E"/>
<path d="M890.5 25L893.098 20.5H887.902L890.5 25Z" fill="#CB3C2E"/>
<path d="M896.5 25L899.098 20.5H893.902L896.5 25Z" fill="#CB3C2E"/>
<path d="M902.5 25L905.098 20.5H899.902L902.5 25Z" fill="#CB3C2E"/>
<path d="M908.5 25L911.098 20.5H905.902L908.5 25Z" fill="#CB3C2E"/>
<path d="M914.5 25L917.098 20.5H911.902L914.5 25Z" fill="#CB3C2E"/>
<path d="M920.5 25L923.098 20.5H917.902L920.5 25Z" fill="#CB3C2E"/>
<path d="M926.5 25L929.098 20.5H923.902L926.5 25Z" fill="#CB3C2E"/>
<path d="M932.5 25L935.098 20.5H929.902L932.5 25Z" fill="#CB3C2E"/>
<path d="M938.5 25L941.098 20.5H935.902L938.5 25Z" fill="#CB3C2E"/>
<path d="M944.5 25L947.098 20.5H941.902L944.5 25Z" fill="#CB3C2E"/>
<path d="M950.5 25L953.098 20.5H947.902L950.5 25Z" fill="#CB3C2E"/>
<path d="M956.5 25L959.098 20.5H953.902L956.5 25Z" fill="#CB3C2E"/>
<rect x="719.5" y="29" width="240" height="5" fill="#CB3C2E"/>
<path d="M482.666 6L485.264 1.5H480.068L482.666 6Z" fill="#CB3C2E"/>
<path d="M488.666 6L491.264 1.5H486.068L488.666 6Z" fill="#CB3C2E"/>
<path d="M494.666 6L497.264 1.5H492.068L494.666 6Z" fill="#CB3C2E"/>
<path d="M500.666 6L503.264 1.5H498.068L500.666 6Z" fill="#CB3C2E"/>
<path d="M506.666 6L509.264 1.5H504.068L506.666 6Z" fill="#CB3C2E"/>
<path d="M512.666 6L515.264 1.5H510.068L512.666 6Z" fill="#CB3C2E"/>
<path d="M518.666 6L521.264 1.5H516.068L518.666 6Z" fill="#CB3C2E"/>
<path d="M524.666 6L527.264 1.5H522.068L524.666 6Z" fill="#CB3C2E"/>
<path d="M530.666 6L533.264 1.5H528.068L530.666 6Z" fill="#CB3C2E"/>
<path d="M536.666 6L539.264 1.5H534.068L536.666 6Z" fill="#CB3C2E"/>
<path d="M542.666 6L545.264 1.5H540.068L542.666 6Z" fill="#CB3C2E"/>
<path d="M548.666 6L551.264 1.5H546.068L548.666 6Z" fill="#CB3C2E"/>
<path d="M554.666 6L557.264 1.5H552.068L554.666 6Z" fill="#CB3C2E"/>
<path d="M560.666 6L563.264 1.5H558.068L560.666 6Z" fill="#CB3C2E"/>
<path d="M566.666 6L569.264 1.5H564.068L566.666 6Z" fill="#CB3C2E"/>
<path d="M572.666 6L575.264 1.5H570.068L572.666 6Z" fill="#CB3C2E"/>
<path d="M578.666 6L581.264 1.5H576.068L578.666 6Z" fill="#CB3C2E"/>
<path d="M584.666 6L587.264 1.5H582.068L584.666 6Z" fill="#CB3C2E"/>
<path d="M590.666 6L593.264 1.5H588.068L590.666 6Z" fill="#CB3C2E"/>
<path d="M596.666 6L599.264 1.5H594.068L596.666 6Z" fill="#CB3C2E"/>
<path d="M602.666 6L605.264 1.5H600.068L602.666 6Z" fill="#CB3C2E"/>
<path d="M608.666 6L611.264 1.5H606.068L608.666 6Z" fill="#CB3C2E"/>
<path d="M614.666 6L617.264 1.5H612.068L614.666 6Z" fill="#CB3C2E"/>
<path d="M620.666 6L623.264 1.5H618.068L620.666 6Z" fill="#CB3C2E"/>
<path d="M626.666 6L629.264 1.5H624.068L626.666 6Z" fill="#CB3C2E"/>
<path d="M632.666 6L635.264 1.5H630.068L632.666 6Z" fill="#CB3C2E"/>
<path d="M638.666 6L641.264 1.5H636.068L638.666 6Z" fill="#CB3C2E"/>
<path d="M644.666 6L647.264 1.5H642.068L644.666 6Z" fill="#CB3C2E"/>
<path d="M650.666 6L653.264 1.5H648.068L650.666 6Z" fill="#CB3C2E"/>
<path d="M656.666 6L659.264 1.5H654.068L656.666 6Z" fill="#CB3C2E"/>
<path d="M662.666 6L665.264 1.5H660.068L662.666 6Z" fill="#CB3C2E"/>
<path d="M668.666 6L671.264 1.5H666.068L668.666 6Z" fill="#CB3C2E"/>
<path d="M674.666 6L677.264 1.5H672.068L674.666 6Z" fill="#CB3C2E"/>
<path d="M680.666 6L683.264 1.5H678.068L680.666 6Z" fill="#CB3C2E"/>
<path d="M686.666 6L689.264 1.5H684.068L686.666 6Z" fill="#CB3C2E"/>
<path d="M692.666 6L695.264 1.5H690.068L692.666 6Z" fill="#CB3C2E"/>
<path d="M698.666 6L701.264 1.5H696.068L698.666 6Z" fill="#CB3C2E"/>
<path d="M704.666 6L707.264 1.5H702.068L704.666 6Z" fill="#CB3C2E"/>
<path d="M710.666 6L713.264 1.5H708.068L710.666 6Z" fill="#CB3C2E"/>
<path d="M716.666 6L719.264 1.5H714.068L716.666 6Z" fill="#CB3C2E"/>
<rect x="479.666" y="10" width="240" height="5" fill="#CB3C2E"/>
<path d="M482.666 25L485.264 20.5H480.068L482.666 25Z" fill="#CB3C2E"/>
<path d="M488.666 25L491.264 20.5H486.068L488.666 25Z" fill="#CB3C2E"/>
<path d="M494.666 25L497.264 20.5H492.068L494.666 25Z" fill="#CB3C2E"/>
<path d="M500.666 25L503.264 20.5H498.068L500.666 25Z" fill="#CB3C2E"/>
<path d="M506.666 25L509.264 20.5H504.068L506.666 25Z" fill="#CB3C2E"/>
<path d="M512.666 25L515.264 20.5H510.068L512.666 25Z" fill="#CB3C2E"/>
<path d="M518.666 25L521.264 20.5H516.068L518.666 25Z" fill="#CB3C2E"/>
<path d="M524.666 25L527.264 20.5H522.068L524.666 25Z" fill="#CB3C2E"/>
<path d="M530.666 25L533.264 20.5H528.068L530.666 25Z" fill="#CB3C2E"/>
<path d="M536.666 25L539.264 20.5H534.068L536.666 25Z" fill="#CB3C2E"/>
<path d="M542.666 25L545.264 20.5H540.068L542.666 25Z" fill="#CB3C2E"/>
<path d="M548.666 25L551.264 20.5H546.068L548.666 25Z" fill="#CB3C2E"/>
<path d="M554.666 25L557.264 20.5H552.068L554.666 25Z" fill="#CB3C2E"/>
<path d="M560.666 25L563.264 20.5H558.068L560.666 25Z" fill="#CB3C2E"/>
<path d="M566.666 25L569.264 20.5H564.068L566.666 25Z" fill="#CB3C2E"/>
<path d="M572.666 25L575.264 20.5H570.068L572.666 25Z" fill="#CB3C2E"/>
<path d="M578.666 25L581.264 20.5H576.068L578.666 25Z" fill="#CB3C2E"/>
<path d="M584.666 25L587.264 20.5H582.068L584.666 25Z" fill="#CB3C2E"/>
<path d="M590.666 25L593.264 20.5H588.068L590.666 25Z" fill="#CB3C2E"/>
<path d="M596.666 25L599.264 20.5H594.068L596.666 25Z" fill="#CB3C2E"/>
<path d="M602.666 25L605.264 20.5H600.068L602.666 25Z" fill="#CB3C2E"/>
<path d="M608.666 25L611.264 20.5H606.068L608.666 25Z" fill="#CB3C2E"/>
<path d="M614.666 25L617.264 20.5H612.068L614.666 25Z" fill="#CB3C2E"/>
<path d="M620.666 25L623.264 20.5H618.068L620.666 25Z" fill="#CB3C2E"/>
<path d="M626.666 25L629.264 20.5H624.068L626.666 25Z" fill="#CB3C2E"/>
<path d="M632.666 25L635.264 20.5H630.068L632.666 25Z" fill="#CB3C2E"/>
<path d="M638.666 25L641.264 20.5H636.068L638.666 25Z" fill="#CB3C2E"/>
<path d="M644.666 25L647.264 20.5H642.068L644.666 25Z" fill="#CB3C2E"/>
<path d="M650.666 25L653.264 20.5H648.068L650.666 25Z" fill="#CB3C2E"/>
<path d="M656.666 25L659.264 20.5H654.068L656.666 25Z" fill="#CB3C2E"/>
<path d="M662.666 25L665.264 20.5H660.068L662.666 25Z" fill="#CB3C2E"/>
<path d="M668.666 25L671.264 20.5H666.068L668.666 25Z" fill="#CB3C2E"/>
<path d="M674.666 25L677.264 20.5H672.068L674.666 25Z" fill="#CB3C2E"/>
<path d="M680.666 25L683.264 20.5H678.068L680.666 25Z" fill="#CB3C2E"/>
<path d="M686.666 25L689.264 20.5H684.068L686.666 25Z" fill="#CB3C2E"/>
<path d="M692.666 25L695.264 20.5H690.068L692.666 25Z" fill="#CB3C2E"/>
<path d="M698.666 25L701.264 20.5H696.068L698.666 25Z" fill="#CB3C2E"/>
<path d="M704.666 25L707.264 20.5H702.068L704.666 25Z" fill="#CB3C2E"/>
<path d="M710.666 25L713.264 20.5H708.068L710.666 25Z" fill="#CB3C2E"/>
<path d="M716.666 25L719.264 20.5H714.068L716.666 25Z" fill="#CB3C2E"/>
<rect x="479.666" y="29" width="240" height="5" fill="#CB3C2E"/>
<path d="M242.836 6L245.434 1.5H240.238L242.836 6Z" fill="#CB3C2E"/>
<path d="M248.836 6L251.434 1.5H246.238L248.836 6Z" fill="#CB3C2E"/>
<path d="M254.836 6L257.434 1.5H252.238L254.836 6Z" fill="#CB3C2E"/>
<path d="M260.836 6L263.434 1.5H258.238L260.836 6Z" fill="#CB3C2E"/>
<path d="M266.836 6L269.434 1.5H264.238L266.836 6Z" fill="#CB3C2E"/>
<path d="M272.836 6L275.434 1.5H270.238L272.836 6Z" fill="#CB3C2E"/>
<path d="M278.836 6L281.434 1.5H276.238L278.836 6Z" fill="#CB3C2E"/>
<path d="M284.836 6L287.434 1.5H282.238L284.836 6Z" fill="#CB3C2E"/>
<path d="M290.836 6L293.434 1.5H288.238L290.836 6Z" fill="#CB3C2E"/>
<path d="M296.836 6L299.434 1.5H294.238L296.836 6Z" fill="#CB3C2E"/>
<path d="M302.836 6L305.434 1.5H300.238L302.836 6Z" fill="#CB3C2E"/>
<path d="M308.836 6L311.434 1.5H306.238L308.836 6Z" fill="#CB3C2E"/>
<path d="M314.836 6L317.434 1.5H312.238L314.836 6Z" fill="#CB3C2E"/>
<path d="M320.836 6L323.434 1.5H318.238L320.836 6Z" fill="#CB3C2E"/>
<path d="M326.836 6L329.434 1.5H324.238L326.836 6Z" fill="#CB3C2E"/>
<path d="M332.836 6L335.434 1.5H330.238L332.836 6Z" fill="#CB3C2E"/>
<path d="M338.836 6L341.434 1.5H336.238L338.836 6Z" fill="#CB3C2E"/>
<path d="M344.836 6L347.434 1.5H342.238L344.836 6Z" fill="#CB3C2E"/>
<path d="M350.836 6L353.434 1.5H348.238L350.836 6Z" fill="#CB3C2E"/>
<path d="M356.836 6L359.434 1.5H354.238L356.836 6Z" fill="#CB3C2E"/>
<path d="M362.836 6L365.434 1.5H360.238L362.836 6Z" fill="#CB3C2E"/>
<path d="M368.836 6L371.434 1.5H366.238L368.836 6Z" fill="#CB3C2E"/>
<path d="M374.836 6L377.434 1.5H372.238L374.836 6Z" fill="#CB3C2E"/>
<path d="M380.836 6L383.434 1.5H378.238L380.836 6Z" fill="#CB3C2E"/>
<path d="M386.836 6L389.434 1.5H384.238L386.836 6Z" fill="#CB3C2E"/>
<path d="M392.836 6L395.434 1.5H390.238L392.836 6Z" fill="#CB3C2E"/>
<path d="M398.836 6L401.434 1.5H396.238L398.836 6Z" fill="#CB3C2E"/>
<path d="M404.836 6L407.434 1.5H402.238L404.836 6Z" fill="#CB3C2E"/>
<path d="M410.836 6L413.434 1.5H408.238L410.836 6Z" fill="#CB3C2E"/>
<path d="M416.836 6L419.434 1.5H414.238L416.836 6Z" fill="#CB3C2E"/>
<path d="M422.836 6L425.434 1.5H420.238L422.836 6Z" fill="#CB3C2E"/>
<path d="M428.836 6L431.434 1.5H426.238L428.836 6Z" fill="#CB3C2E"/>
<path d="M434.836 6L437.434 1.5H432.238L434.836 6Z" fill="#CB3C2E"/>
<path d="M440.836 6L443.434 1.5H438.238L440.836 6Z" fill="#CB3C2E"/>
<path d="M446.836 6L449.434 1.5H444.238L446.836 6Z" fill="#CB3C2E"/>
<path d="M452.836 6L455.434 1.5H450.238L452.836 6Z" fill="#CB3C2E"/>
<path d="M458.836 6L461.434 1.5H456.238L458.836 6Z" fill="#CB3C2E"/>
<path d="M464.836 6L467.434 1.5H462.238L464.836 6Z" fill="#CB3C2E"/>
<path d="M470.836 6L473.434 1.5H468.238L470.836 6Z" fill="#CB3C2E"/>
<path d="M476.836 6L479.434 1.5H474.238L476.836 6Z" fill="#CB3C2E"/>
<rect x="239.836" y="10" width="240" height="5" fill="#CB3C2E"/>
<path d="M242.836 25L245.434 20.5H240.238L242.836 25Z" fill="#CB3C2E"/>
<path d="M248.836 25L251.434 20.5H246.238L248.836 25Z" fill="#CB3C2E"/>
<path d="M254.836 25L257.434 20.5H252.238L254.836 25Z" fill="#CB3C2E"/>
<path d="M260.836 25L263.434 20.5H258.238L260.836 25Z" fill="#CB3C2E"/>
<path d="M266.836 25L269.434 20.5H264.238L266.836 25Z" fill="#CB3C2E"/>
<path d="M272.836 25L275.434 20.5H270.238L272.836 25Z" fill="#CB3C2E"/>
<path d="M278.836 25L281.434 20.5H276.238L278.836 25Z" fill="#CB3C2E"/>
<path d="M284.836 25L287.434 20.5H282.238L284.836 25Z" fill="#CB3C2E"/>
<path d="M290.836 25L293.434 20.5H288.238L290.836 25Z" fill="#CB3C2E"/>
<path d="M296.836 25L299.434 20.5H294.238L296.836 25Z" fill="#CB3C2E"/>
<path d="M302.836 25L305.434 20.5H300.238L302.836 25Z" fill="#CB3C2E"/>
<path d="M308.836 25L311.434 20.5H306.238L308.836 25Z" fill="#CB3C2E"/>
<path d="M314.836 25L317.434 20.5H312.238L314.836 25Z" fill="#CB3C2E"/>
<path d="M320.836 25L323.434 20.5H318.238L320.836 25Z" fill="#CB3C2E"/>
<path d="M326.836 25L329.434 20.5H324.238L326.836 25Z" fill="#CB3C2E"/>
<path d="M332.836 25L335.434 20.5H330.238L332.836 25Z" fill="#CB3C2E"/>
<path d="M338.836 25L341.434 20.5H336.238L338.836 25Z" fill="#CB3C2E"/>
<path d="M344.836 25L347.434 20.5H342.238L344.836 25Z" fill="#CB3C2E"/>
<path d="M350.836 25L353.434 20.5H348.238L350.836 25Z" fill="#CB3C2E"/>
<path d="M356.836 25L359.434 20.5H354.238L356.836 25Z" fill="#CB3C2E"/>
<path d="M362.836 25L365.434 20.5H360.238L362.836 25Z" fill="#CB3C2E"/>
<path d="M368.836 25L371.434 20.5H366.238L368.836 25Z" fill="#CB3C2E"/>
<path d="M374.836 25L377.434 20.5H372.238L374.836 25Z" fill="#CB3C2E"/>
<path d="M380.836 25L383.434 20.5H378.238L380.836 25Z" fill="#CB3C2E"/>
<path d="M386.836 25L389.434 20.5H384.238L386.836 25Z" fill="#CB3C2E"/>
<path d="M392.836 25L395.434 20.5H390.238L392.836 25Z" fill="#CB3C2E"/>
<path d="M398.836 25L401.434 20.5H396.238L398.836 25Z" fill="#CB3C2E"/>
<path d="M404.836 25L407.434 20.5H402.238L404.836 25Z" fill="#CB3C2E"/>
<path d="M410.836 25L413.434 20.5H408.238L410.836 25Z" fill="#CB3C2E"/>
<path d="M416.836 25L419.434 20.5H414.238L416.836 25Z" fill="#CB3C2E"/>
<path d="M422.836 25L425.434 20.5H420.238L422.836 25Z" fill="#CB3C2E"/>
<path d="M428.836 25L431.434 20.5H426.238L428.836 25Z" fill="#CB3C2E"/>
<path d="M434.836 25L437.434 20.5H432.238L434.836 25Z" fill="#CB3C2E"/>
<path d="M440.836 25L443.434 20.5H438.238L440.836 25Z" fill="#CB3C2E"/>
<path d="M446.836 25L449.434 20.5H444.238L446.836 25Z" fill="#CB3C2E"/>
<path d="M452.836 25L455.434 20.5H450.238L452.836 25Z" fill="#CB3C2E"/>
<path d="M458.836 25L461.434 20.5H456.238L458.836 25Z" fill="#CB3C2E"/>
<path d="M464.836 25L467.434 20.5H462.238L464.836 25Z" fill="#CB3C2E"/>
<path d="M470.836 25L473.434 20.5H468.238L470.836 25Z" fill="#CB3C2E"/>
<path d="M476.836 25L479.434 20.5H474.238L476.836 25Z" fill="#CB3C2E"/>
<rect x="239.836" y="29" width="240" height="5" fill="#CB3C2E"/>
<path d="M3 6L5.59808 1.5H0.401924L3 6Z" fill="#CB3C2E"/>
<path d="M9 6L11.5981 1.5H6.40192L9 6Z" fill="#CB3C2E"/>
<path d="M15 6L17.5981 1.5H12.4019L15 6Z" fill="#CB3C2E"/>
<path d="M21 6L23.5981 1.5H18.4019L21 6Z" fill="#CB3C2E"/>
<path d="M27 6L29.5981 1.5H24.4019L27 6Z" fill="#CB3C2E"/>
<path d="M33 6L35.5981 1.5H30.4019L33 6Z" fill="#CB3C2E"/>
<path d="M39 6L41.5981 1.5H36.4019L39 6Z" fill="#CB3C2E"/>
<path d="M45 6L47.5981 1.5H42.4019L45 6Z" fill="#CB3C2E"/>
<path d="M51 6L53.5981 1.5H48.4019L51 6Z" fill="#CB3C2E"/>
<path d="M57 6L59.5981 1.5H54.4019L57 6Z" fill="#CB3C2E"/>
<path d="M63 6L65.5981 1.5H60.4019L63 6Z" fill="#CB3C2E"/>
<path d="M69 6L71.5981 1.5H66.4019L69 6Z" fill="#CB3C2E"/>
<path d="M75 6L77.5981 1.5H72.4019L75 6Z" fill="#CB3C2E"/>
<path d="M81 6L83.5981 1.5H78.4019L81 6Z" fill="#CB3C2E"/>
<path d="M87 6L89.5981 1.5H84.4019L87 6Z" fill="#CB3C2E"/>
<path d="M93 6L95.5981 1.5H90.4019L93 6Z" fill="#CB3C2E"/>
<path d="M99 6L101.598 1.5H96.4019L99 6Z" fill="#CB3C2E"/>
<path d="M105 6L107.598 1.5H102.402L105 6Z" fill="#CB3C2E"/>
<path d="M111 6L113.598 1.5H108.402L111 6Z" fill="#CB3C2E"/>
<path d="M117 6L119.598 1.5H114.402L117 6Z" fill="#CB3C2E"/>
<path d="M123 6L125.598 1.5H120.402L123 6Z" fill="#CB3C2E"/>
<path d="M129 6L131.598 1.5H126.402L129 6Z" fill="#CB3C2E"/>
<path d="M135 6L137.598 1.5H132.402L135 6Z" fill="#CB3C2E"/>
<path d="M141 6L143.598 1.5H138.402L141 6Z" fill="#CB3C2E"/>
<path d="M147 6L149.598 1.5H144.402L147 6Z" fill="#CB3C2E"/>
<path d="M153 6L155.598 1.5H150.402L153 6Z" fill="#CB3C2E"/>
<path d="M159 6L161.598 1.5H156.402L159 6Z" fill="#CB3C2E"/>
<path d="M165 6L167.598 1.5H162.402L165 6Z" fill="#CB3C2E"/>
<path d="M171 6L173.598 1.5H168.402L171 6Z" fill="#CB3C2E"/>
<path d="M177 6L179.598 1.5H174.402L177 6Z" fill="#CB3C2E"/>
<path d="M183 6L185.598 1.5H180.402L183 6Z" fill="#CB3C2E"/>
<path d="M189 6L191.598 1.5H186.402L189 6Z" fill="#CB3C2E"/>
<path d="M195 6L197.598 1.5H192.402L195 6Z" fill="#CB3C2E"/>
<path d="M201 6L203.598 1.5H198.402L201 6Z" fill="#CB3C2E"/>
<path d="M207 6L209.598 1.5H204.402L207 6Z" fill="#CB3C2E"/>
<path d="M213 6L215.598 1.5H210.402L213 6Z" fill="#CB3C2E"/>
<path d="M219 6L221.598 1.5H216.402L219 6Z" fill="#CB3C2E"/>
<path d="M225 6L227.598 1.5H222.402L225 6Z" fill="#CB3C2E"/>
<path d="M231 6L233.598 1.5H228.402L231 6Z" fill="#CB3C2E"/>
<path d="M237 6L239.598 1.5H234.402L237 6Z" fill="#CB3C2E"/>
<rect y="10" width="240" height="5" fill="#CB3C2E"/>
<path d="M3 25L5.59808 20.5H0.401924L3 25Z" fill="#CB3C2E"/>
<path d="M9 25L11.5981 20.5H6.40192L9 25Z" fill="#CB3C2E"/>
<path d="M15 25L17.5981 20.5H12.4019L15 25Z" fill="#CB3C2E"/>
<path d="M21 25L23.5981 20.5H18.4019L21 25Z" fill="#CB3C2E"/>
<path d="M27 25L29.5981 20.5H24.4019L27 25Z" fill="#CB3C2E"/>
<path d="M33 25L35.5981 20.5H30.4019L33 25Z" fill="#CB3C2E"/>
<path d="M39 25L41.5981 20.5H36.4019L39 25Z" fill="#CB3C2E"/>
<path d="M45 25L47.5981 20.5H42.4019L45 25Z" fill="#CB3C2E"/>
<path d="M51 25L53.5981 20.5H48.4019L51 25Z" fill="#CB3C2E"/>
<path d="M57 25L59.5981 20.5H54.4019L57 25Z" fill="#CB3C2E"/>
<path d="M63 25L65.5981 20.5H60.4019L63 25Z" fill="#CB3C2E"/>
<path d="M69 25L71.5981 20.5H66.4019L69 25Z" fill="#CB3C2E"/>
<path d="M75 25L77.5981 20.5H72.4019L75 25Z" fill="#CB3C2E"/>
<path d="M81 25L83.5981 20.5H78.4019L81 25Z" fill="#CB3C2E"/>
<path d="M87 25L89.5981 20.5H84.4019L87 25Z" fill="#CB3C2E"/>
<path d="M93 25L95.5981 20.5H90.4019L93 25Z" fill="#CB3C2E"/>
<path d="M99 25L101.598 20.5H96.4019L99 25Z" fill="#CB3C2E"/>
<path d="M105 25L107.598 20.5H102.402L105 25Z" fill="#CB3C2E"/>
<path d="M111 25L113.598 20.5H108.402L111 25Z" fill="#CB3C2E"/>
<path d="M117 25L119.598 20.5H114.402L117 25Z" fill="#CB3C2E"/>
<path d="M123 25L125.598 20.5H120.402L123 25Z" fill="#CB3C2E"/>
<path d="M129 25L131.598 20.5H126.402L129 25Z" fill="#CB3C2E"/>
<path d="M135 25L137.598 20.5H132.402L135 25Z" fill="#CB3C2E"/>
<path d="M141 25L143.598 20.5H138.402L141 25Z" fill="#CB3C2E"/>
<path d="M147 25L149.598 20.5H144.402L147 25Z" fill="#CB3C2E"/>
<path d="M153 25L155.598 20.5H150.402L153 25Z" fill="#CB3C2E"/>
<path d="M159 25L161.598 20.5H156.402L159 25Z" fill="#CB3C2E"/>
<path d="M165 25L167.598 20.5H162.402L165 25Z" fill="#CB3C2E"/>
<path d="M171 25L173.598 20.5H168.402L171 25Z" fill="#CB3C2E"/>
<path d="M177 25L179.598 20.5H174.402L177 25Z" fill="#CB3C2E"/>
<path d="M183 25L185.598 20.5H180.402L183 25Z" fill="#CB3C2E"/>
<path d="M189 25L191.598 20.5H186.402L189 25Z" fill="#CB3C2E"/>
<path d="M195 25L197.598 20.5H192.402L195 25Z" fill="#CB3C2E"/>
<path d="M201 25L203.598 20.5H198.402L201 25Z" fill="#CB3C2E"/>
<path d="M207 25L209.598 20.5H204.402L207 25Z" fill="#CB3C2E"/>
<path d="M213 25L215.598 20.5H210.402L213 25Z" fill="#CB3C2E"/>
<path d="M219 25L221.598 20.5H216.402L219 25Z" fill="#CB3C2E"/>
<path d="M225 25L227.598 20.5H222.402L225 25Z" fill="#CB3C2E"/>
<path d="M231 25L233.598 20.5H228.402L231 25Z" fill="#CB3C2E"/>
<path d="M237 25L239.598 20.5H234.402L237 25Z" fill="#CB3C2E"/>
<rect y="29" width="239.834" height="5" fill="#CB3C2E"/>
</g>
<defs>
<clipPath id="clip0_314_87">
<rect width="1441" height="34" fill="white"/>
</clipPath>
</defs>
</svg>
