<svg width="32" height="32" viewBox="0 0 32 32" fill="none" xmlns="http://www.w3.org/2000/svg">
<g clip-path="url(#clip0_312_3567)">
<path d="M1.49973 12.2816H30.5003V10.1483H1.49973V12.2816ZM29.8667 11.648V12.5845H32V11.648H29.8667ZM26.4235 29.3483H5.57653V31.4816H26.4235V29.3483ZM2.13333 12.5845V11.648H0V12.5845H2.13333ZM6.17813 29.7195C3.51808 24.3992 2.13326 18.5327 2.13333 12.5845H0C0 18.8651 1.46133 25.0581 4.27093 30.6752L6.17813 29.7195ZM5.57653 29.3483C5.83253 29.3483 6.06507 29.4933 6.17813 29.7195L4.27093 30.6752C4.39239 30.9174 4.57881 31.1212 4.80937 31.2636C5.03993 31.406 5.30554 31.4815 5.57653 31.4816V29.3483ZM25.8219 29.7195C25.8778 29.6078 25.9637 29.5139 26.0699 29.4484C26.1762 29.3828 26.2986 29.3481 26.4235 29.3483V31.4816C26.9781 31.4816 27.4816 31.1701 27.7291 30.6752L25.8219 29.7195ZM29.8667 12.5845C29.8667 18.5323 28.48 24.3989 25.8219 29.7195L27.7291 30.6752C30.5378 25.0583 32.0001 18.8645 32 12.5845H29.8667ZM30.5003 12.2816C30.3322 12.2816 30.1711 12.2148 30.0522 12.096C29.9334 11.9772 29.8667 11.816 29.8667 11.648H32C32 11.2502 31.842 10.8688 31.5607 10.5875C31.2795 10.3063 30.898 10.1483 30.5003 10.1483V12.2816ZM1.49973 10.1483C1.10198 10.1483 0.720516 10.3063 0.439262 10.5875C0.158007 10.8688 0 11.2502 0 11.648H2.13333C2.13333 11.816 2.06658 11.9772 1.94776 12.096C1.82893 12.2148 1.66777 12.2816 1.49973 12.2816V10.1483ZM8.38187 11.7632L14.7819 1.09653L12.9493 0L6.54933 10.6667L8.38187 11.7632ZM17.2181 1.09653L23.6181 11.7632L25.4485 10.6667L19.0485 0L17.2181 1.09653ZM14.9333 14.4149V25.0816H17.0667V14.4149H14.9333ZM10.6667 20.8149H21.3333V18.6816H10.6667V20.8149Z" fill="#F8F9FA"/>
</g>
<defs>
<clipPath id="clip0_312_3567">
<rect width="32" height="32" fill="white"/>
</clipPath>
</defs>
</svg>
