<svg width="32" height="32" viewBox="0 0 32 32" fill="none" xmlns="http://www.w3.org/2000/svg">
<path d="M16 9.33333C22.6274 9.33333 28 8.13943 28 6.66667C28 5.19391 22.6274 4 16 4C9.37258 4 4 5.19391 4 6.66667C4 8.13943 9.37258 9.33333 16 9.33333Z" stroke="#CB3C2E" stroke-width="2" stroke-linecap="round" stroke-linejoin="round"/>
<path d="M4 6.6665C4 9.63984 9.16133 15.5652 11.808 18.4065C12.7789 19.4357 13.3239 20.7944 13.3333 22.2092V25.3332C13.3333 26.0404 13.6143 26.7187 14.1144 27.2188C14.6145 27.7189 15.2928 27.9998 16 27.9998C16.7072 27.9998 17.3855 27.7189 17.8856 27.2188C18.3857 26.7187 18.6667 26.0404 18.6667 25.3332V22.2092C18.6667 20.7945 19.228 19.4425 20.192 18.4065C22.84 15.5652 28 9.64117 28 6.6665" stroke="#CB3C2E" stroke-width="2" stroke-linecap="round" stroke-linejoin="round"/>
</svg>
