<svg width="32" height="32" viewBox="0 0 32 32" fill="none" xmlns="http://www.w3.org/2000/svg">
<path d="M15.9987 15.9998C19.6806 15.9998 22.6654 13.0151 22.6654 9.33317C22.6654 5.65127 19.6806 2.6665 15.9987 2.6665C12.3168 2.6665 9.33203 5.65127 9.33203 9.33317C9.33203 13.0151 12.3168 15.9998 15.9987 15.9998Z" stroke="#F8F9FA" stroke-width="2"/>
<path d="M22.6661 18.6665H23.1354C24.1102 18.6668 25.0513 19.023 25.782 19.6682C26.5127 20.3134 26.9826 21.2033 27.1034 22.1705L27.6248 26.3358C27.6717 26.7111 27.6382 27.092 27.5266 27.4533C27.415 27.8146 27.2279 28.1481 26.9776 28.4316C26.7273 28.715 26.4196 28.942 26.0748 29.0975C25.7301 29.2529 25.3563 29.3333 24.9781 29.3332H7.02076C6.64261 29.3333 6.26876 29.2529 5.92402 29.0975C5.57929 28.942 5.27157 28.715 5.02126 28.4316C4.77096 28.1481 4.58381 27.8146 4.47224 27.4533C4.36066 27.092 4.32721 26.7111 4.3741 26.3358L4.8941 22.1705C5.01503 21.2028 5.48532 20.3126 6.21654 19.6673C6.94776 19.022 7.88953 18.6661 8.86476 18.6665H9.33276" stroke="#F8F9FA" stroke-width="2" stroke-linecap="round" stroke-linejoin="round"/>
</svg>
